<?xml version="1.0" standalone="no"?>
<!DOCTYPE svg PUBLIC "-//W3C//DTD SVG 20010904//EN"
 "http://www.w3.org/TR/2001/REC-SVG-20010904/DTD/svg10.dtd">
<svg version="1.0" xmlns="http://www.w3.org/2000/svg"
 width="552.000000pt" height="552.000000pt" viewBox="0 0 552.000000 552.000000"
 preserveAspectRatio="xMidYMid meet">
<metadata>
Created by potrace 1.14, written by Peter Selinger 2001-2017
</metadata>
<g transform="translate(0.000000,552.000000) scale(0.100000,-0.100000)"
fill="#000000" stroke="none">
<path d="M2659 5276 c-2 -2 -45 -7 -95 -10 -50 -4 -99 -8 -110 -10 -10 -2 -41
-7 -69 -10 -94 -12 -280 -47 -360 -67 -44 -12 -89 -23 -101 -25 -12 -2 -79
-22 -150 -45 -245 -78 -467 -182 -674 -316 -87 -57 -218 -153 -280 -207 -57
-50 -243 -238 -275 -280 -16 -21 -35 -44 -42 -50 -6 -7 -41 -55 -77 -107 -36
-52 -69 -98 -73 -104 -4 -5 -15 -23 -23 -40 -8 -16 -18 -32 -21 -35 -11 -9
-125 -241 -154 -315 -23 -59 -51 -143 -60 -180 -1 -5 -5 -17 -8 -25 -17 -43
-59 -275 -74 -405 -15 -139 -7 -590 12 -678 2 -12 7 -39 10 -60 30 -214 110
-460 221 -674 90 -175 175 -301 332 -495 9 -11 61 -65 114 -119 84 -84 132
-127 241 -215 47 -38 206 -144 216 -144 6 0 11 -4 11 -9 0 -5 10 -13 23 -17
12 -4 24 -10 27 -13 9 -11 231 -119 315 -152 81 -32 243 -86 280 -94 31 -6
198 -47 215 -53 8 -3 24 -7 35 -9 11 -2 31 -5 45 -8 14 -2 39 -6 55 -9 88 -17
205 -32 325 -43 151 -15 703 -7 810 11 14 3 48 7 75 10 28 4 61 9 75 11 14 3
41 7 60 9 19 2 46 7 60 10 14 3 36 8 50 10 14 2 59 12 100 21 41 9 85 18 98
21 57 12 346 98 436 130 143 52 403 164 601 259 207 99 255 119 321 131 14 3
29 6 33 6 11 3 76 -13 138 -34 l63 -22 54 28 55 28 -27 41 c-15 23 -29 44 -33
47 -3 3 -30 41 -59 85 -30 44 -57 82 -60 85 -3 3 -25 35 -50 73 -24 37 -47 67
-52 67 -4 0 -8 5 -8 11 0 12 -61 102 -72 107 -5 2 -8 10 -8 17 0 7 -4 15 -8
17 -9 3 -109 146 -127 179 -5 11 -13 19 -17 19 -5 0 -8 6 -8 14 0 8 -4 16 -8
18 -5 2 -28 32 -52 68 -24 36 -46 67 -49 70 -3 3 -10 12 -16 22 -15 24 -135
199 -155 225 -20 25 -11 30 -99 -50 -38 -34 -42 -42 -37 -73 7 -39 8 -172 3
-194 -19 -75 -97 -159 -227 -245 -80 -52 -212 -127 -230 -131 -3 0 -27 -11
-55 -23 -56 -26 -225 -92 -240 -95 -5 -1 -19 -7 -30 -13 -11 -6 -23 -11 -28
-11 -4 0 -51 -14 -105 -30 -120 -37 -237 -70 -277 -77 -16 -2 -41 -7 -55 -11
-272 -65 -608 -73 -872 -20 -68 14 -222 59 -232 68 -6 4 -18 8 -28 8 -10 0
-26 4 -36 9 -9 4 -73 36 -142 70 -277 136 -499 337 -682 619 -53 81 -129 228
-153 297 -9 28 -21 59 -26 70 -13 31 -43 144 -53 206 -3 19 -8 45 -11 59 -11
51 -19 179 -18 305 0 123 10 292 18 305 2 4 7 29 10 56 4 27 14 74 22 104 8
30 16 62 18 70 2 8 4 16 5 18 2 1 3 5 4 10 16 85 173 399 216 432 4 3 12 15
18 26 13 25 38 55 107 127 167 175 393 316 646 403 79 26 202 59 259 68 42 7
86 15 120 21 99 20 535 27 685 12 141 -15 321 -48 445 -82 30 -9 64 -18 75
-21 33 -9 39 -10 68 -22 16 -7 31 -12 35 -12 30 0 292 -116 345 -152 15 -11
27 -17 27 -13 0 3 6 1 13 -5 6 -5 41 -33 77 -61 36 -28 79 -68 97 -90 31 -40
36 -53 48 -139 6 -41 12 -49 65 -87 48 -34 61 -39 70 -28 6 7 65 92 131 187
65 95 125 182 133 193 22 31 184 265 246 356 30 44 61 87 68 94 6 8 12 18 12
24 0 6 5 11 10 11 6 0 10 7 10 15 0 8 5 15 10 15 6 0 10 6 10 14 0 8 4 16 8
18 5 2 27 30 49 63 l41 61 -67 38 c-66 38 -66 38 -98 21 -18 -10 -40 -25 -50
-35 -54 -50 -141 -46 -288 15 -16 7 -70 30 -120 50 -49 21 -103 43 -120 50
-346 147 -782 277 -1070 319 -23 4 -52 8 -65 11 -13 3 -54 7 -90 11 -36 3 -76
8 -90 11 -29 6 -575 14 -581 9z"/>
</g>
</svg>
