<svg width="119" height="21" viewBox="0 0 119 21" fill="none" xmlns="http://www.w3.org/2000/svg">
<path d="M1.44531 17V4.9375H3.25781C4.0651 4.9375 4.70833 5 5.1875 5.125C5.67188 5.25 6.08073 5.46094 6.41406 5.75781C6.7526 6.0651 7.02083 6.44792 7.21875 6.90625C7.42188 7.36979 7.52344 7.83854 7.52344 8.3125C7.52344 9.17708 7.19271 9.90885 6.53125 10.5078C7.17188 10.7266 7.67708 11.1094 8.04688 11.6562C8.42188 12.1979 8.60938 12.8281 8.60938 13.5469C8.60938 14.4896 8.27604 15.2865 7.60938 15.9375C7.20833 16.3385 6.75781 16.6172 6.25781 16.7734C5.71094 16.9245 5.02604 17 4.20312 17H1.44531ZM3.26562 10.1172H3.83594C4.51302 10.1172 5.00781 9.96875 5.32031 9.67188C5.63802 9.36979 5.79688 8.92708 5.79688 8.34375C5.79688 7.77604 5.63542 7.34635 5.3125 7.05469C4.98958 6.75781 4.52083 6.60938 3.90625 6.60938H3.26562V10.1172ZM3.26562 15.2891H4.39062C5.21354 15.2891 5.81771 15.1276 6.20312 14.8047C6.60938 14.4557 6.8125 14.013 6.8125 13.4766C6.8125 12.9557 6.61719 12.5182 6.22656 12.1641C5.84635 11.8151 5.16667 11.6406 4.1875 11.6406H3.26562V15.2891ZM13.5422 11.7891L9.60469 4.9375H11.6984L14.4563 9.75781L17.2219 4.9375H19.3156L15.3625 11.7891V17H13.5422V11.7891Z" fill="white"/>
<path d="M38.1232 17H39.8768L45 5H42.7823L39 13.9747L35.2006 5H33L38.1232 17Z" fill="white"/>
<path d="M59 11.5C59 7.86921 56.0954 5 52.4999 5C48.8869 5 46 7.86921 46 11.5C46 15.1308 48.8869 18 52.4999 18C56.0954 18 59 15.1308 59 11.5ZM48.0899 11.5C48.0899 9.00273 50.0027 7.00137 52.4999 7.00137C54.9796 7.00137 56.8923 9.00273 56.8923 11.5C56.8923 13.9973 54.9796 15.9986 52.4999 15.9986C50.0027 15.9986 48.0899 13.9973 48.0899 11.5Z" fill="white"/>
<path d="M62 14.1744C62.0908 16.158 63.8181 18 66.709 18C69.2545 18 71 16.53 71 14.4046C71 12.4918 69.8182 11.3052 67.7999 10.6676L66.1999 10.1717C65.0545 9.79973 64.4545 9.30382 64.4545 8.38283C64.4727 7.47957 65.3273 6.93052 66.4 6.93052C67.3272 6.93052 68.2908 7.40872 68.6 8.59536H70.7272C70.5999 6.84196 69.1272 5 66.4364 5C64.0181 5 62.309 6.31063 62.3272 8.4891C62.3272 10.3311 63.4545 11.4823 65.4908 12.1199L67.0727 12.6335C68.2908 13.0232 68.8545 13.6253 68.8545 14.4755C68.8545 15.4673 67.909 16.0695 66.6908 16.0695C65.509 16.0695 64.2909 15.4496 64.1272 14.1744H62Z" fill="white"/>
<path d="M80 17H81.8V11.8451H87.2V17H89V5H87.2V9.96903H81.8V5H80V17Z" fill="white"/>
<path d="M106 11.5C106 7.86921 103.095 5 99.4999 5C95.8869 5 93 7.86921 93 11.5C93 15.1308 95.8869 18 99.4999 18C103.095 18 106 15.1308 106 11.5ZM95.09 11.5C95.09 9.00273 97.0027 7.00137 99.4999 7.00137C101.98 7.00137 103.892 9.00273 103.892 11.5C103.892 13.9973 101.98 15.9986 99.4999 15.9986C97.0027 15.9986 95.09 13.9973 95.09 11.5Z" fill="white"/>
<path d="M109 17H112.695C116.271 17 119 14.3972 119 11C119 7.60282 116.271 5 112.695 5H109V17ZM110.983 15.1578V6.84226H112.695C115.271 6.84226 116.983 8.65071 116.983 11C116.983 13.3493 115.271 15.1578 112.695 15.1578H110.983Z" fill="white"/>
<path d="M76 5H74V9H76V5Z" fill="white"/>
</svg>
