<svg width="136" height="22" viewBox="0 0 136 22" fill="none" xmlns="http://www.w3.org/2000/svg">
<path d="M122.047 21.8606H128.039V21.0287C127.483 21.0287 127.203 20.7965 127.203 20.3362V4.93189H133.241C133.487 4.93189 133.72 4.99523 133.937 5.11769C134.153 5.24015 134.263 5.44283 134.263 5.71731H135.098V0.396729H134.263C134.263 0.827442 134.153 1.12303 133.937 1.27505C133.72 1.42706 133.487 1.5073 133.241 1.5073H116.705C116.455 1.5073 116.226 1.43129 116.01 1.27505C115.793 1.12303 115.683 0.827442 115.683 0.396729H114.848V5.71731H115.683C115.683 5.43861 115.789 5.24015 116.01 5.11769C116.226 4.99523 116.459 4.93189 116.705 4.93189H122.743V20.3362C122.743 20.5854 122.666 20.7585 122.51 20.8683C122.353 20.9781 122.2 21.0287 122.047 21.0287V21.8606ZM87.8256 1.5073V2.33916C88.3853 2.33916 88.6609 2.57141 88.6609 3.03168V20.332C88.6609 20.7923 88.3811 21.0245 87.8256 21.0245V21.8564H94.0034V21.0245C93.8169 21.0245 93.6261 20.9696 93.4226 20.8641C93.2233 20.7585 93.1215 20.5811 93.1215 20.332V13.7151H99.5792L103.251 19.175C103.713 19.8211 103.946 20.3024 103.946 20.6107C103.946 20.8894 103.743 21.0287 103.34 21.0287V21.8606H110.447V21.0287C110.107 20.9358 109.789 20.8049 109.493 20.636C109.196 20.4671 108.929 20.2138 108.678 19.8717L104.125 13.2548C104.778 13.1028 105.409 12.879 106.028 12.5834C106.647 12.292 107.211 11.9078 107.724 11.4264C108.237 10.9492 108.644 10.3834 108.954 9.7373C109.264 9.09123 109.416 8.34804 109.416 7.51617C109.416 5.32882 108.64 3.77488 107.093 2.867C105.545 1.95912 103.391 1.50308 100.635 1.50308H87.8256V1.5073ZM93.2148 10.2947V4.92767H100.554C102.132 4.92767 103.285 5.15147 104.014 5.59907C104.739 6.04668 105.104 6.65474 105.104 7.4275C105.104 9.34037 103.586 10.2947 100.55 10.2947H93.2148ZM64.5517 1.5073H57.9075V2.33916C58.4333 2.33916 58.7894 2.39406 58.976 2.49963C59.1626 2.60942 59.2559 2.78677 59.2559 3.03168V14.737C59.2559 15.6913 59.4721 16.6118 59.9046 17.4901C60.3371 18.3685 60.9943 19.1496 61.8805 19.8253C62.7624 20.5051 63.8945 21.0372 65.2726 21.4215C66.6506 21.8057 68.2703 22 70.1275 22C71.9846 22 73.6043 21.8057 74.9824 21.4215C76.3604 21.0372 77.4883 20.5051 78.3745 19.8253C79.2564 19.1496 79.9136 18.3685 80.3503 17.4901C80.7828 16.6118 80.9991 15.6955 80.9991 14.737V3.03168C80.9991 2.56719 81.3383 2.33916 82.0209 2.33916V1.5073H75.5633V2.34338C76.335 2.34338 76.7251 2.57564 76.7251 3.04013V13.6644C76.7251 15.1508 76.1823 16.3416 75.1011 17.2368C74.0156 18.132 72.3577 18.5838 70.1317 18.5838C67.9014 18.5838 66.2435 18.1362 65.1623 17.2368C64.0768 16.3416 63.5341 15.1508 63.5341 13.6644V3.04013C63.5341 2.57564 63.8733 2.34338 64.556 2.34338V1.5073H64.5517ZM36.1473 1.87467C34.6463 2.30538 33.3361 2.95568 32.221 3.8171C31.1059 4.68275 30.2239 5.76798 29.5752 7.07701C28.9222 8.39027 28.6 9.9231 28.6 11.6797C28.6 13.4364 28.9264 14.9734 29.5752 16.2825C30.2239 17.5957 31.1059 18.6809 32.221 19.5424C33.3361 20.4038 34.6463 21.0288 36.1473 21.4172C37.6483 21.8015 39.2511 21.9957 40.9556 21.9957C42.6559 21.9957 44.2629 21.8015 45.7639 21.4172C47.2649 21.033 48.5751 20.408 49.6902 19.5424C50.8053 18.6809 51.6873 17.5915 52.336 16.2825C52.9848 14.9734 53.3112 13.4364 53.3112 11.6797C53.3112 9.9231 52.9848 8.38604 52.336 7.07701C51.6873 5.76798 50.8053 4.67853 49.6902 3.8171C48.5751 2.95568 47.2649 2.30538 45.7639 1.87467C44.2629 1.44395 42.6601 1.2286 40.9556 1.2286C39.2511 1.2286 37.6483 1.44395 36.1473 1.87467ZM43.8601 5.1388C44.8056 5.46395 45.6494 5.92422 46.3914 6.52806C47.1334 7.13191 47.7313 7.86243 48.1807 8.72386C48.6302 9.58951 48.8549 10.5734 48.8549 11.684C48.8549 12.7945 48.6302 13.7826 48.1807 14.6441C47.7313 15.5097 47.1334 16.2402 46.3914 16.8399C45.6494 17.4437 44.8056 17.904 43.8601 18.2291C42.9145 18.5543 41.9478 18.7147 40.9556 18.7147C39.9634 18.7147 38.9967 18.5543 38.0511 18.2291C37.1056 17.904 36.2618 17.4437 35.5198 16.8399C34.7778 16.2402 34.1799 15.5055 33.7305 14.6441C33.281 13.7826 33.0563 12.7945 33.0563 11.684C33.0563 10.5734 33.281 9.58529 33.7305 8.72386C34.1799 7.86243 34.7778 7.12768 35.5198 6.52806C36.2618 5.92844 37.1056 5.46395 38.0511 5.1388C38.9967 4.81366 39.9634 4.65319 40.9556 4.65319C41.9478 4.65319 42.9145 4.81366 43.8601 5.1388ZM20.0477 7.5584L23.143 3.12036L22.579 2.79521C22.4518 2.85855 22.3373 2.93456 22.2271 3.02746C22.1169 3.12036 21.9854 3.16681 21.8285 3.16681C21.608 3.16681 21.2476 3.05702 20.7473 2.83744C20.247 2.62208 19.6194 2.36872 18.8689 2.09003C18.1184 1.81133 17.2492 1.55797 16.2655 1.34261C15.2818 1.12303 14.1921 1.01746 13.0049 1.01746C11.47 1.01746 9.97746 1.23704 8.52311 1.67198C7.06876 2.10692 5.77976 2.76988 4.6519 3.65664C3.52403 4.5434 2.61665 5.6413 1.92976 6.95033C1.24286 8.25936 0.899414 9.78375 0.899414 11.5277C0.899414 13.2717 1.24286 14.8045 1.92976 16.1304C2.61665 17.4564 3.51132 18.5585 4.60526 19.4495C5.6992 20.3362 6.95003 20.9823 8.35774 21.3877C9.76546 21.7931 11.1901 21.9957 12.6275 21.9957C14.0352 21.9957 15.3073 21.8691 16.4521 21.6199C17.5927 21.3708 18.5933 21.0667 19.4541 20.7078C20.3148 20.3489 21.0271 20.0322 21.5868 19.7493C22.1508 19.4706 22.5578 19.327 22.808 19.327C22.9649 19.327 23.232 19.4072 23.6051 19.5593L24.0758 19.327L20.6031 14.3738L20.0859 14.8425C20.1155 14.9692 20.1325 15.1212 20.1325 15.3112V15.6871C20.1325 15.9658 19.9035 16.2782 19.4541 16.6203C19.0004 16.9623 18.4153 17.2832 17.6944 17.5788C16.9736 17.8744 16.1765 18.132 15.303 18.3516C14.4253 18.5711 13.5688 18.6767 12.725 18.6767C11.8177 18.6767 10.9272 18.512 10.0495 18.1869C9.17608 17.8617 8.39166 17.3761 7.70477 16.7385C7.01787 16.1009 6.46242 15.3366 6.03841 14.4498C5.6144 13.5631 5.40664 12.558 5.40664 11.4348C5.40664 10.3116 5.5932 9.31926 5.97057 8.44516C6.34794 7.57529 6.87795 6.84054 7.56485 6.24936C8.25174 5.65819 9.05736 5.21481 9.9817 4.915C10.9018 4.61941 11.9279 4.47162 13.0558 4.47162C13.9928 4.47162 14.8536 4.55607 15.638 4.7292C16.4182 4.90233 17.1008 5.10924 17.6775 5.35838C18.2584 5.60752 18.7036 5.8651 19.0131 6.12691C19.3269 6.39294 19.4838 6.60407 19.4838 6.75609C19.4838 6.84899 19.4922 6.92922 19.5092 6.98833C19.5262 7.05167 19.5346 7.11501 19.5346 7.17413L20.0477 7.5584Z" fill="url(#paint0_linear_175_612)"/>
<defs>
<linearGradient id="paint0_linear_175_612" x1="-118.693" y1="26.6813" x2="138.809" y2="-54.7586" gradientUnits="userSpaceOnUse">
<stop stop-color="#BCB8AF"/>
<stop offset="0.1683" stop-color="#848175"/>
<stop offset="0.2969" stop-color="#5F5E50"/>
<stop offset="0.3647" stop-color="#515042"/>
<stop offset="0.3855" stop-color="#5C5B4E"/>
<stop offset="0.4231" stop-color="#79786E"/>
<stop offset="0.4731" stop-color="#A9A8A1"/>
<stop offset="0.533" stop-color="#E9E9E7"/>
<stop offset="0.5518" stop-color="white"/>
<stop offset="0.5904" stop-color="#DDDCD9"/>
<stop offset="0.66" stop-color="#A5A39A"/>
<stop offset="0.7108" stop-color="#827F72"/>
<stop offset="0.7372" stop-color="#757163"/>
<stop offset="0.8898" stop-color="#98968E"/>
<stop offset="1" stop-color="#B3B3AF"/>
</linearGradient>
</defs>
</svg>
