<svg width="160" height="22" viewBox="0 0 160 22" fill="none" xmlns="http://www.w3.org/2000/svg">
<path d="M139.652 0.831868V1.66374C140.457 1.66374 140.86 1.89598 140.86 2.35626V19.6566C140.86 20.1168 140.457 20.3491 139.652 20.3491V21.181H157.863C158.232 21.181 158.541 21.1936 158.792 21.2274C159.042 21.257 159.165 21.3963 159.165 21.6412H160V16.7852H159.165C159.165 17.0934 159.042 17.3341 158.792 17.503C158.541 17.6719 158.232 17.7564 157.863 17.7564H145.321V2.35203C145.321 1.88753 145.677 1.65951 146.389 1.65951V0.827642H139.652V0.831868ZM109.543 21.1852H115.767V20.3533C115.487 20.3533 115.271 20.3238 115.119 20.2604C114.962 20.2013 114.885 20.0451 114.885 19.8001C114.885 19.6481 114.924 19.4708 115 19.2681C115.076 19.0696 115.178 18.8458 115.301 18.5967L116.603 16.0969H126.541L127.796 18.736C127.89 18.9852 127.966 19.1836 128.03 19.3356C128.093 19.4919 128.123 19.6608 128.123 19.8466C128.123 20.0957 128.038 20.2604 127.869 20.3533C127.699 20.4462 127.534 20.4927 127.381 20.4927V21.1852H133.979V20.3533C133.762 20.29 133.559 20.2013 133.372 20.0746C133.186 19.9522 133.016 19.7495 132.863 19.475L125.337 3.74551C125.18 3.4077 125.036 3.10367 124.896 2.84186C124.756 2.58006 124.688 2.35626 124.688 2.17046C124.688 1.9551 124.744 1.83264 124.85 1.79886C124.956 1.7693 125.057 1.72285 125.151 1.65951V0.827642H118.138V1.65951C118.231 1.72285 118.316 1.77352 118.392 1.81997C118.468 1.86642 118.506 1.98043 118.506 2.16623C118.506 2.41537 118.451 2.66873 118.345 2.93054C118.235 3.19235 118.091 3.5386 117.904 3.96932L110.984 19.0063C110.862 19.2554 110.683 19.5214 110.45 19.817C110.217 20.1126 109.916 20.2858 109.543 20.3491V21.1852ZM117.998 12.6723L121.296 4.8983L125.057 12.6723H117.998ZM109.441 0.831868H103.357V1.66374C103.789 1.66374 104.022 1.84953 104.052 2.21691C104.082 2.43226 104.005 2.72363 103.819 3.09523C103.632 3.46682 103.369 4.01999 103.03 4.76318L97.9674 15.9575L92.6249 4.43803C92.4086 3.97354 92.2136 3.55127 92.044 3.16701C91.8744 2.78275 91.7896 2.48294 91.7896 2.26336C91.7896 1.8622 91.9761 1.66374 92.345 1.66374V0.831868H85.7941V1.66374C85.9807 1.66374 86.1715 1.73974 86.375 1.89598C86.5743 2.05222 86.7396 2.26758 86.8626 2.54628L93.9223 17.6719C94.2022 18.2589 94.4396 18.7191 94.6432 19.0612C94.8424 19.4032 94.9442 19.6481 94.9442 19.8001C94.9442 19.9564 94.8764 20.0704 94.7365 20.1464C94.5965 20.2224 94.4481 20.2942 94.2955 20.3533V21.1852H101.309V20.3533C100.749 20.2604 100.473 20.1211 100.473 19.9353C100.473 19.7833 100.558 19.5637 100.728 19.2892C100.897 19.0105 101.152 18.4742 101.495 17.6677L108.279 2.72363C108.619 2.01422 109.004 1.65951 109.441 1.65951V0.831868ZM79.2135 5.13477V0H78.3782C78.3782 0.557394 77.899 0.831868 76.9365 0.831868H60.4468V1.66374C60.5994 1.66374 60.7563 1.71863 60.9132 1.82419C61.0659 1.93398 61.1464 2.11134 61.1464 2.35626V19.6566C61.1464 19.9057 61.0701 20.0788 60.9132 20.1886C60.7563 20.2984 60.6037 20.3491 60.4468 20.3491V21.181H77.4962C77.8693 21.181 78.1789 21.1936 78.4248 21.2274C78.6707 21.257 78.7979 21.4132 78.7979 21.6877H79.6332V16.8316H78.7979C78.7979 17.1103 78.675 17.3341 78.4248 17.503C78.1746 17.6719 77.8651 17.7564 77.4962 17.7564H65.6028V12.2964H72.3827C73.0017 12.2964 73.4808 12.3344 73.8243 12.4105C74.1635 12.4865 74.2865 12.6976 74.1974 13.0354H75.126V8.13288H74.2907C74.2907 8.47069 74.1677 8.68183 73.9218 8.75783C73.6717 8.83384 73.2858 8.87185 72.76 8.87185H65.607V4.24801H76.9408C77.899 4.24801 78.3824 4.5436 78.3824 5.12633H79.2135V5.13477ZM35.6889 12.6723H48.1378V19.6566C48.1378 19.9057 48.07 20.0788 47.93 20.1886C47.7901 20.2984 47.629 20.3491 47.4424 20.3491V21.181H53.298V20.3491C53.1114 20.3491 52.9503 20.2942 52.8104 20.1886C52.6705 20.0831 52.6026 19.9057 52.6026 19.6566V2.35626C52.6026 2.10712 52.6705 1.93398 52.8104 1.82419C52.9503 1.71863 53.1114 1.66374 53.298 1.66374V0.831868H47.4424V1.66374C47.629 1.66374 47.7901 1.71863 47.93 1.82419C48.07 1.93398 48.1378 2.11134 48.1378 2.35626V8.88029H35.6889V2.35626C35.6889 2.10712 35.7567 1.93398 35.8966 1.82419C36.0366 1.71863 36.1977 1.66374 36.3843 1.66374V0.831868H30.5287V1.66374C30.7153 1.66374 30.8764 1.71863 31.0163 1.82419C31.1562 1.93398 31.2241 2.11134 31.2241 2.35626V19.6566C31.2241 19.9057 31.1562 20.0788 31.0163 20.1886C30.8764 20.2984 30.7153 20.3491 30.5287 20.3491V21.181H36.3843V20.3491C36.1977 20.3491 36.0366 20.2942 35.8966 20.1886C35.7567 20.0831 35.6889 19.9057 35.6889 19.6566V12.6723ZM19.1483 6.88296L22.2435 2.44493L21.6796 2.11978C21.5524 2.18312 21.4379 2.25913 21.3277 2.35203C21.2174 2.44493 21.086 2.49138 20.9291 2.49138C20.7086 2.49138 20.3482 2.38159 19.8479 2.16201C19.3476 1.94665 18.72 1.69329 17.9695 1.41459C17.219 1.1359 16.3498 0.882541 15.3661 0.667184C14.3824 0.447605 13.2927 0.342036 12.1055 0.342036C10.5706 0.342036 9.07805 0.561617 7.62369 0.996553C6.16934 1.43149 4.88035 2.09445 3.75248 2.98121C2.62462 3.86797 1.71724 4.96587 1.03034 6.2749C0.343448 7.58393 0 9.10832 0 10.8523C0 12.5963 0.343448 14.1291 1.03034 15.455C1.71724 16.7809 2.6119 17.883 3.70584 18.774C4.79979 19.6608 6.05062 20.3069 7.45833 20.7122C8.86604 21.1176 10.2907 21.3203 11.7281 21.3203C13.1358 21.3203 14.4078 21.1936 15.5527 20.9445C16.6933 20.6953 17.6939 20.3913 18.5547 20.0324C19.4154 19.6735 20.1277 19.3568 20.6874 19.0738C21.2514 18.7951 21.6584 18.6516 21.9086 18.6516C22.0655 18.6516 22.3326 18.7318 22.7057 18.8838L23.1764 18.6516L19.7037 13.6984L19.1864 14.1671C19.2161 14.2938 19.2331 14.4458 19.2331 14.6358V15.0116C19.2331 15.2903 19.0041 15.6028 18.5547 15.9448C18.101 16.2869 17.5158 16.6078 16.795 16.9034C16.0742 17.199 15.2771 17.4566 14.4036 17.6761C13.5301 17.8957 12.6694 18.0013 11.8256 18.0013C10.9182 18.0013 10.0278 17.8366 9.15013 17.5115C8.27243 17.1863 7.49225 16.7007 6.80535 16.0631C6.11846 15.4254 5.56301 14.6611 5.139 13.7744C4.71499 12.8876 4.50722 11.8826 4.50722 10.7594C4.50722 9.63615 4.69379 8.64382 5.07115 7.76973C5.44852 6.89986 5.97853 6.16511 6.66543 5.57394C7.35233 4.98276 8.15794 4.53938 9.08228 4.23957C10.0024 3.94398 11.0285 3.79619 12.1564 3.79619C13.0934 3.79619 13.9542 3.88064 14.7386 4.05377C15.5188 4.2269 16.2014 4.43381 16.7781 4.68295C17.3589 4.93209 17.8042 5.18967 18.1137 5.45147C18.4275 5.7175 18.5843 5.92864 18.5843 6.08066C18.5843 6.17356 18.5928 6.25379 18.6098 6.3129C18.6267 6.37625 18.6352 6.43959 18.6352 6.4987L19.1483 6.88296Z" fill="url(#paint0_linear_175_611)"/>
<defs>
<linearGradient id="paint0_linear_175_611" x1="-142.585" y1="26.3873" x2="153.378" y2="-84.7784" gradientUnits="userSpaceOnUse">
<stop stop-color="#BCB8AF"/>
<stop offset="0.1683" stop-color="#848175"/>
<stop offset="0.2969" stop-color="#5F5E50"/>
<stop offset="0.3647" stop-color="#515042"/>
<stop offset="0.3855" stop-color="#5C5B4E"/>
<stop offset="0.4231" stop-color="#79786E"/>
<stop offset="0.4731" stop-color="#A9A8A1"/>
<stop offset="0.533" stop-color="#E9E9E7"/>
<stop offset="0.5518" stop-color="white"/>
<stop offset="0.5904" stop-color="#DDDCD9"/>
<stop offset="0.66" stop-color="#A5A39A"/>
<stop offset="0.7108" stop-color="#827F72"/>
<stop offset="0.7372" stop-color="#757163"/>
<stop offset="0.8898" stop-color="#98968E"/>
<stop offset="1" stop-color="#B3B3AF"/>
</linearGradient>
</defs>
</svg>
