<svg width="22" height="25" viewBox="0 0 22 25" fill="none" xmlns="http://www.w3.org/2000/svg">
<path d="M9.12464 8.30422C9.24888 7.90296 9.18687 7.50189 9.00041 7.13145L6.29639 0.866698L6.26538 0.804915C6.07893 0.434651 5.73703 0.187754 5.33288 0.0642C4.92876 -0.0591498 4.49363 0.00241764 4.15173 0.18755L1.04359 1.88495C0.950363 1.94673 0.825915 2.0083 0.732687 2.10108C-0.106567 2.8726 -0.230781 4.50823 0.390781 7.03893C0.919137 9.29172 2.0381 11.8224 3.37471 13.9518C4.24499 15.3712 5.95447 17.655 7.75725 19.445C9.62224 21.2657 11.9221 22.9014 14.0668 23.9508C15.5586 24.6605 16.7708 25 17.7033 25C18.2317 25 18.6668 24.8766 19.0087 24.6297C19.133 24.5372 19.2264 24.4446 19.2884 24.3828L21.6195 21.7288C22.1789 21.0806 22.1169 20.0932 21.4641 19.5376L15.8383 15.5256C15.5274 15.2787 15.1235 15.1553 14.7194 15.1553C14.3153 15.1861 13.9424 15.3715 13.6627 15.6799L12.1086 17.1922C11.9844 17.1614 11.7667 17.007 11.3316 16.6676C11.3006 16.6368 11.2693 16.6058 11.2693 16.575L11.2383 16.5442C11.2383 16.5442 10.4923 15.8035 9.15589 14.1371C7.85047 12.5322 7.57079 12.0386 7.57079 12.0386L7.50857 11.9461C7.50857 11.9153 7.47756 11.9153 7.47756 11.8843C6.88696 10.9894 6.73155 10.5574 6.6695 10.3721L8.44125 9.23026C8.75172 9.01391 9.03146 8.67449 9.12464 8.30422ZM7.94372 7.93395C7.94372 7.99574 7.88149 8.0883 7.78827 8.11909L5.83008 9.38444C5.6124 9.50779 5.48817 9.69313 5.42596 9.93982C5.33273 10.3101 5.36373 10.9275 6.42067 12.5321C6.45167 12.5629 6.48289 12.6246 6.5139 12.6554C6.60713 12.8406 7.01125 13.4269 8.19219 14.9082C9.46658 16.4821 10.2124 17.2536 10.3369 17.3771C10.3991 17.4389 10.4611 17.5315 10.5233 17.5933C11.2381 18.2415 11.7977 18.4881 12.2638 18.4574C12.5125 18.4266 12.7612 18.334 12.9166 18.1487L14.564 16.5439L14.595 16.5131C14.6572 16.4205 14.7814 16.4205 14.8126 16.3897C14.8749 16.3897 14.9681 16.3897 15.0613 16.4823L20.687 20.4632C20.8113 20.5866 20.8113 20.7719 20.7181 20.8953L18.325 23.5803L18.2627 23.6421C18.1385 23.7347 17.3302 24.1359 14.5952 22.8088C12.575 21.8522 10.3991 20.2781 8.6276 18.55C6.98028 16.9451 5.30177 14.7541 4.40052 13.3037C3.12613 11.2668 2.06941 8.89068 1.57206 6.76117C0.857239 3.82944 1.4166 3.1197 1.54105 3.0269C1.57206 2.99611 1.57206 2.99611 1.60328 2.99611L4.71142 1.29871C4.77364 1.26793 4.83565 1.26793 4.86687 1.26793H4.9601C4.9911 1.26793 5.08433 1.32971 5.14655 1.39128L7.85058 7.65603L7.88159 7.71781C7.97481 7.81038 7.94372 7.90296 7.94372 7.93395Z" fill="url(#paint0_linear_315_125)"/>
<defs>
<linearGradient id="paint0_linear_315_125" x1="-19.6054" y1="30.4174" x2="26.7377" y2="28.3411" gradientUnits="userSpaceOnUse">
<stop stop-color="#BCB8AF"/>
<stop offset="0.1683" stop-color="#848175"/>
<stop offset="0.2969" stop-color="#5F5E50"/>
<stop offset="0.3647" stop-color="#515042"/>
<stop offset="0.3855" stop-color="#5C5B4E"/>
<stop offset="0.4231" stop-color="#79786E"/>
<stop offset="0.4731" stop-color="#A9A8A1"/>
<stop offset="0.533" stop-color="#E9E9E7"/>
<stop offset="0.5518" stop-color="white"/>
<stop offset="0.5904" stop-color="#DDDCD9"/>
<stop offset="0.66" stop-color="#A5A39A"/>
<stop offset="0.7108" stop-color="#827F72"/>
<stop offset="0.7372" stop-color="#757163"/>
<stop offset="0.8898" stop-color="#98968E"/>
<stop offset="1" stop-color="#B3B3AF"/>
</linearGradient>
</defs>
</svg>
